<?xml version="1.0" encoding="utf-8"?>
<!-- Generator: Adobe Illustrator 22.1.0, SVG Export Plug-In . SVG Version: 6.00 Build 0)  -->
<svg version="1.1" id="Layer_1" xmlns="http://www.w3.org/2000/svg" xmlns:xlink="http://www.w3.org/1999/xlink" x="0px" y="0px"
	 viewBox="0 0 95 56" style="enable-background:new 0 0 95 56;" xml:space="preserve">
<g>
	<g>
		<path d="M47.5,55C13.582031,55,1.210938,28.680176,1.089844,28.414063L0.901367,28l0.188477-0.414063
			C1.210938,27.319824,13.582031,1,47.5,1s46.289063,26.319824,46.410156,26.585938L94.098633,28l-0.188477,0.414063
			C93.789063,28.680176,81.417969,55,47.5,55z M3.116211,27.999023C4.820313,31.290039,17.223633,53,47.5,53
			c30.319824,0,42.683594-21.703613,44.383789-24.999023C90.179688,24.709961,77.776367,3,47.5,3
			C17.180176,3,4.816406,24.703613,3.116211,27.999023z"/>
	</g>
	<g>
		<circle cx="47.5" cy="28" r="18"/>
	</g>
</g>
</svg>
