<?xml version="1.0" encoding="utf-8"?>
<!-- Generator: Adobe Illustrator 22.1.0, SVG Export Plug-In . SVG Version: 6.00 Build 0)  -->
<svg version="1.1" id="Layer_1" xmlns="http://www.w3.org/2000/svg" xmlns:xlink="http://www.w3.org/1999/xlink" x="0px" y="0px"
	 viewBox="0 0 123 45" style="enable-background:new 0 0 123 45;" xml:space="preserve">
<style type="text/css">
	.st0{fill:#33B5E5;}
</style>
<g>
	<g>
		<g>
			<path class="st0" d="M96.174271,22.7267v-16.834c0-1.479622-1.118294-2.77047-2.594994-2.863411
				c-1.616211-0.101715-2.954712,1.178208-2.954712,2.769188v7.72863c0,0.291801-0.380722,0.403275-0.538094,0.157547
				l-2.688072-4.197083l-0.075691-0.107689c-0.506645-0.675537-1.316093-1.115204-2.224541-1.115204
				c-0.902634,0-1.706253,0.430923-2.212898,1.100624L82.79792,9.487572l-2.982704,4.278694
				c-0.16259,0.233231-0.528809,0.118179-0.528809-0.16613V5.892663c0-1.479614-1.118309-2.770462-2.595001-2.863373
				c-1.616219-0.101692-2.954697,1.178223-2.954697,2.769188V22.81443c0,1.531555,1.240387,2.774857,2.774857,2.774857
				c0.902626,0,1.706253-0.430923,2.212891-1.100632l0.087341-0.122269l6.006683-8.48101
				c0.117249-0.16555,0.363586-0.163582,0.47818,0.003822l5.796684,8.468445l0.087364,0.125183
				c0.544601,0.723022,1.432358,1.170143,2.424606,1.099068C95.070114,25.476967,96.174271,24.195251,96.174271,22.7267z"/>
			<path class="st0" d="M121.961098,14.370499c0-6.196106-5.022682-11.218788-11.218773-11.218788
				c-6.196106,0-11.218788,5.022682-11.218788,11.218788s5.022682,11.218788,11.218788,11.218788
				C116.938416,25.589287,121.961098,20.566605,121.961098,14.370499z M116.405586,14.370499
				c0,3.127167-2.536095,5.663246-5.663261,5.663246c-3.127159,0-5.663254-2.536079-5.663254-5.663246
				c0-3.127159,2.536095-5.663239,5.663254-5.663239C113.869492,8.70726,116.405586,11.24334,116.405586,14.370499z"/>
		</g>
		<g>
			<path class="st0" d="M23.476461,22.7267v-16.834c0-1.479622-1.118294-2.77047-2.59499-2.863411
				c-1.616209-0.101715-2.95471,1.178208-2.95471,2.769188v7.72863c0,0.291801-0.380724,0.403275-0.538099,0.157547
				l-2.688069-4.197083l-0.075689-0.107689c-0.50665-0.675537-1.316092-1.115204-2.224544-1.115204
				c-0.902637,0-1.706251,0.430923-2.212902,1.100624l-0.087347,0.122269l-2.982706,4.278694
				c-0.162589,0.233231-0.528803,0.118179-0.528803-0.16613l0.000001-7.707473c0-1.479614-1.11831-2.770462-2.595008-2.863373
				C2.377383,2.927597,1.038903,4.207512,1.038903,5.798478V22.81443c0,1.531555,1.240387,2.774857,2.774858,2.774857
				c0.90262,0,1.706252-0.430923,2.212884-1.100632l0.087348-0.122269l6.006679-8.48101
				c0.117253-0.16555,0.363587-0.163582,0.478179,0.003822l5.796687,8.468445l0.087366,0.125183
				c0.544598,0.723022,1.432352,1.170143,2.424603,1.099068C22.372311,25.476967,23.476461,24.195251,23.476461,22.7267z"/>
			<path class="st0" d="M49.26329,14.370499c0-6.196106-5.022682-11.218788-11.218769-11.218788
				c-6.196106,0-11.218788,5.022682-11.218788,11.218788s5.022682,11.218788,11.218788,11.218788
				C44.240608,25.589287,49.26329,20.566605,49.26329,14.370499z M43.707779,14.370499
				c0,3.127167-2.536095,5.663246-5.663258,5.663246s-5.663261-2.536079-5.663261-5.663246
				c0-3.127159,2.536098-5.663239,5.663261-5.663239S43.707779,11.24334,43.707779,14.370499z"/>
		</g>
		<path class="st0" d="M70.791145,14.125183c0.019554,0.293945-0.009804,0.578148-0.078407,0.852478
			c-0.078407,0.313568-0.205795,0.607521-0.382164,0.862297c0,0.009811,0,0.009811-0.009811,0.019615
			c-0.078346,0.107773-0.156754,0.215546-0.254715,0.313568c-0.088211,0.107773-0.18618,0.19593-0.284203,0.274338
			c-0.097961,0.0784-0.195984,0.156807-0.303757,0.225349c-0.421341,0.254776-0.921082,0.411591-1.459999,0.411591H54.975971
			c-0.538921,0-1.038666-0.147003-1.460003-0.411591l-0.078407-0.058792l-0.127388-0.088158
			c-0.078346-0.058784-0.156754-0.117577-0.225353-0.186172c-0.107769-0.098022-0.205795-0.205795-0.293949-0.32338
			c-0.048981-0.058792-0.088215-0.117577-0.127388-0.176369c-0.058792-0.088211-0.107773-0.176369-0.156815-0.27433
			c-0.048981-0.09803-0.097961-0.195992-0.127388-0.294014c-0.078346-0.205734-0.127327-0.41153-0.156754-0.636879
			c-0.009808-0.107834-0.019615-0.215607-0.019615-0.32338c0-0.068596,0-0.147003,0.009808-0.215538
			c0-0.029427,0-0.049042,0.009808-0.078407c0.009808-0.068604,0.009808-0.127388,0.029427-0.18618
			c0.088154-0.529167,0.333122-0.989685,0.685863-1.371849c0.058788-0.068596,0.11758-0.127388,0.186176-0.18618l0.009811-0.009804
			c0.195984-0.166565,0.41153-0.313507,0.63694-0.431152c0.372356-0.186111,0.783886-0.293945,1.205227-0.303757h12.95396
			c0.46051,0,0.901466,0.107834,1.293381,0.303757c0.098022,0.049042,0.195984,0.107834,0.284203,0.156815
			c0.176369,0.127388,0.342934,0.264587,0.489937,0.41153c0.078346,0.068604,0.146942,0.147011,0.215546,0.235161
			c0.274391,0.342995,0.460571,0.744713,0.538918,1.19548C70.77153,13.929192,70.781342,14.027214,70.791145,14.125183z"/>
	</g>
	<g>
		<path class="st0" d="M2.301129,36.806511l1.168945,5.084473l1.392578-2.430664h0.643555l1.40625,2.443359l1.208008-5.097168
			c0.25,0.026367,0.604492,0.052246,1.078125,0.06543l-1.65625,6.503418H6.872418l-1.694336-2.640625l-1.642578,2.640625H2.839215
			l-1.628906-6.503418C1.67027,36.858757,2.038434,36.832878,2.301129,36.806511z"/>
		<path class="st0" d="M18.005232,43.401726v-1.011719c-0.499023,0.709473-1.300781,1.063965-2.416993,1.063965
			c-0.958984,0-1.734375-0.301758-2.325195-0.90625c-0.591797-0.617676-0.893555-1.418945-0.893555-2.404297
			c0-0.998535,0.301758-1.799805,0.90625-2.41748c0.604492-0.617188,1.392578-0.932617,2.37793-0.932617
			c1.01172,0,1.799806,0.341797,2.351563,1.011719v-0.998535c0.380859,0.039551,0.722656,0.06543,1.038086,0.06543v6.477051
			C18.662458,43.348991,18.307966,43.362175,18.005232,43.401726z M15.771832,42.494987
			c0.814454,0,1.431642-0.275879,1.839845-0.827637c0.249023-0.31543,0.367188-0.814453,0.367188-1.510742
			s-0.130859-1.22168-0.380859-1.57666c-0.407227-0.551758-1.011719-0.827637-1.812501-0.827637
			c-0.696289,0-1.274414,0.223633-1.708008,0.656738c-0.433594,0.433594-0.657227,1.011719-0.657227,1.734375
			C13.42027,41.601921,14.352887,42.494987,15.771832,42.494987z"/>
		<path class="st0" d="M22.556013,36.871941c0.525391-0.013184,0.932617-0.039063,1.22168-0.06543l1.787109,2.430664
			l1.773438-2.430664c0.275391,0.026367,0.682617,0.052246,1.208984,0.06543l-2.365234,3.192871l2.443359,3.28418
			c-0.472656,0-0.892578,0.026367-1.248047,0.065918l-1.826172-2.535645l-1.838867,2.535645
			c-0.341797-0.039551-0.749023-0.065918-1.22168-0.065918l2.443359-3.297363L22.556013,36.871941z"/>
		<path class="st0" d="M38.44566,37.739128c0.669922-0.630371,1.484375-0.945801,2.469727-0.945801
			s1.8125,0.31543,2.469727,0.945801c0.657227,0.630859,0.985352,1.418945,0.985352,2.37793s-0.328125,1.760742-0.97168,2.391113
			c-0.644531,0.630859-1.458984,0.945801-2.444336,0.945801c-1.011719,0-1.852539-0.314941-2.508789-0.932617
			c-0.657227-0.617676-0.985352-1.418945-0.985352-2.404297C37.460308,39.158073,37.788433,38.356804,38.44566,37.739128z
			 M42.623394,38.435417c-0.433594-0.433594-1.011719-0.643555-1.708008-0.643555s-1.261719,0.223145-1.708008,0.669922
			c-0.446289,0.433594-0.669922,0.998535-0.669922,1.668457c0,0.683105,0.223633,1.248047,0.669922,1.681641
			s1.024414,0.644043,1.734375,0.644043c1.405273,0,2.351563-0.933105,2.351563-2.338867
			C43.293316,39.420769,43.069683,38.869011,42.623394,38.435417z"/>
		<path class="st0" d="M49.263042,36.806511v1.063965c0.419922-0.630371,1.352539-1.077148,2.258789-1.077148
			c1.09082,0,1.892578,0.380859,2.299805,1.011719c0.407227,0.630371,0.564453,1.32666,0.564453,2.180664
			c0,1.169434-0.052734,2.3125-0.144531,3.429199c-0.249023-0.026367-0.604492-0.052734-1.063477-0.065918
			c0.091797-1.405762,0.130859-2.456543,0.130859-3.152832c0-1.603027-0.630859-2.404297-1.905273-2.404297
			c-0.629883,0-1.142578,0.196777-1.549805,0.591309c-0.394531,0.394043-0.59082,0.90625-0.59082,1.523926v3.468262h-1.038086
			v-6.503418C48.684917,36.858757,49.03941,36.832878,49.263042,36.806511z"/>
		<path class="st0" d="M64.535507,36.806511l1.168945,5.084473l1.392578-2.430664h0.643555l1.40625,2.443359l1.208008-5.097168
			c0.25,0.026367,0.604492,0.052246,1.078125,0.06543l-1.65625,6.503418h-0.669922l-1.694336-2.640625l-1.642578,2.640625h-0.696289
			l-1.62891-6.503418C63.904644,36.858757,64.272812,36.832878,64.535507,36.806511z"/>
		<path class="st0" d="M80.239609,43.401726v-1.011719c-0.499023,0.709473-1.300781,1.063965-2.416992,1.063965
			c-0.958984,0-1.734375-0.301758-2.325195-0.90625c-0.591797-0.617676-0.893555-1.418945-0.893555-2.404297
			c0-0.998535,0.301758-1.799805,0.90625-2.41748c0.604492-0.617188,1.392578-0.932617,2.37793-0.932617
			c1.011719,0,1.799805,0.341797,2.351563,1.011719v-0.998535c0.380859,0.039551,0.722656,0.06543,1.038086,0.06543v6.477051
			C80.896835,43.348991,80.542343,43.362175,80.239609,43.401726z M78.00621,42.494987
			c0.814453,0,1.431641-0.275879,1.839844-0.827637c0.249023-0.31543,0.367188-0.814453,0.367188-1.510742
			s-0.130859-1.22168-0.380859-1.57666c-0.407227-0.551758-1.011719-0.827637-1.8125-0.827637
			c-0.696289,0-1.274414,0.223633-1.708008,0.656738c-0.433594,0.433594-0.657227,1.011719-0.657227,1.734375
			C75.654648,41.601921,76.587265,42.494987,78.00621,42.494987z"/>
		<path class="st0" d="M84.79039,36.871941c0.525391-0.013184,0.932617-0.039063,1.22168-0.06543l1.787109,2.430664
			l1.773438-2.430664c0.275391,0.026367,0.682617,0.052246,1.208984,0.06543l-2.365234,3.192871l2.443359,3.28418
			c-0.472656,0-0.892578,0.026367-1.248047,0.065918l-1.826172-2.535645l-1.838867,2.535645
			c-0.341797-0.039551-0.749023-0.065918-1.22168-0.065918l2.443359-3.297363L84.79039,36.871941z"/>
		<path class="st0" d="M100.680038,37.739128c0.669922-0.630371,1.484375-0.945801,2.469727-0.945801
			s1.8125,0.31543,2.469727,0.945801c0.657227,0.630859,0.985352,1.418945,0.985352,2.37793s-0.328125,1.760742-0.97168,2.391113
			c-0.644531,0.630859-1.458984,0.945801-2.444336,0.945801c-1.011719,0-1.852539-0.314941-2.508789-0.932617
			c-0.657227-0.617676-0.985352-1.418945-0.985352-2.404297C99.694687,39.158073,100.022812,38.356804,100.680038,37.739128z
			 M104.857773,38.435417c-0.433594-0.433594-1.011719-0.643555-1.708008-0.643555s-1.261719,0.223145-1.708008,0.669922
			c-0.446289,0.433594-0.669922,0.998535-0.669922,1.668457c0,0.683105,0.223633,1.248047,0.669922,1.681641
			s1.024414,0.644043,1.734375,0.644043c1.405273,0,2.351563-0.933105,2.351563-2.338867
			C105.527695,39.420769,105.304062,38.869011,104.857773,38.435417z"/>
		<path class="st0" d="M113.033859,34.849968h0.180054l0.059998-0.929993c-0.110046-0.019958-0.200012-0.029968-0.290039-0.029968
			c-1.73999,0-2.339966,0.880005-2.339966,2.440002v0.5h-0.869995v0.940002h0.869995v5.639954h1.01001v-5.639954h1.309998
			c0.019958-0.330017,0.059998-0.650024,0.099976-0.940002h-1.409973v-0.369995
			C111.653915,35.409966,111.943893,34.849968,113.033859,34.849968z"/>
		<path class="st0" d="M118.633896,34.849968h0.179993l0.059998-0.929993c-0.109985-0.019958-0.200012-0.029968-0.289978-0.029968
			c-1.740051,0-2.340027,0.880005-2.340027,2.440002v0.5h-0.869995v0.940002h0.869995v5.639954h1.01001v-5.639954h1.309998
			c0.02002-0.330017,0.059998-0.650024,0.099976-0.940002h-1.409973v-0.369995
			C117.253891,35.409966,117.543869,34.849968,118.633896,34.849968z"/>
	</g>
</g>
</svg>
